<?xml version="1.0" encoding="UTF-8"?>
<!--Generator: Apple Native CoreSVG 232.5-->
<!DOCTYPE svg
PUBLIC "-//W3C//DTD SVG 1.1//EN"
       "http://www.w3.org/Graphics/SVG/1.1/DTD/svg11.dtd">
<svg version="1.1" xmlns="http://www.w3.org/2000/svg" xmlns:xlink="http://www.w3.org/1999/xlink" width="29.0088" height="23.8379">
 <g>
  <rect height="23.8379" opacity="0" width="29.0088" x="0" y="0"/>
  <path d="M18.2617 23.8379L25.6348 23.8379C27.666 23.8379 28.6475 22.876 28.6475 20.8008L28.6475 15.8936C28.6475 13.8184 27.666 12.8516 25.6348 12.8516L18.2617 12.8516C16.2207 12.8516 15.249 13.8184 15.249 15.8936L15.249 20.8008C15.249 22.876 16.2207 23.8379 18.2617 23.8379ZM18.2666 21.499C17.793 21.499 17.583 21.2842 17.583 20.8105L17.583 15.8838C17.583 15.4102 17.793 15.1904 18.2666 15.1904L25.6348 15.1904C26.0938 15.1904 26.3086 15.4102 26.3086 15.8838L26.3086 20.8105C26.3086 21.2842 26.0938 21.499 25.6348 21.499Z" fill="#000000" fill-opacity="0.85"/>
  <path d="M3.0127 23.8379L10.3857 23.8379C12.4219 23.8379 13.3984 22.876 13.3984 20.8008L13.3984 15.8936C13.3984 13.8184 12.4219 12.8516 10.3857 12.8516L3.0127 12.8516C0.976562 12.8516 0 13.8184 0 15.8936L0 20.8008C0 22.876 0.976562 23.8379 3.0127 23.8379ZM3.0127 21.499C2.55371 21.499 2.33887 21.2842 2.33887 20.8105L2.33887 15.8838C2.33887 15.4102 2.55371 15.1904 3.0127 15.1904L10.3809 15.1904C10.8398 15.1904 11.0596 15.4102 11.0596 15.8838L11.0596 20.8105C11.0596 21.2842 10.8398 21.499 10.3809 21.499Z" fill="#000000" fill-opacity="0.85"/>
  <path d="M18.2617 11.001L25.6348 11.001C27.666 11.001 28.6475 10.0439 28.6475 7.96875L28.6475 3.05664C28.6475 0.981445 27.666 0.0244141 25.6348 0.0244141L18.2617 0.0244141C16.2207 0.0244141 15.249 0.981445 15.249 3.05664L15.249 7.96875C15.249 10.0439 16.2207 11.001 18.2617 11.001ZM18.2666 8.67188C17.793 8.67188 17.583 8.45215 17.583 7.96875L17.583 3.04688C17.583 2.57812 17.793 2.3584 18.2666 2.3584L25.6348 2.3584C26.0938 2.3584 26.3086 2.57812 26.3086 3.04688L26.3086 7.96875C26.3086 8.45215 26.0938 8.67188 25.6348 8.67188Z" fill="#000000" fill-opacity="0.85"/>
  <path d="M3.0127 11.001L10.3857 11.001C12.4219 11.001 13.3984 10.0439 13.3984 7.96875L13.3984 3.05664C13.3984 0.981445 12.4219 0.0244141 10.3857 0.0244141L3.0127 0.0244141C0.976562 0.0244141 0 0.981445 0 3.05664L0 7.96875C0 10.0439 0.976562 11.001 3.0127 11.001ZM3.0127 8.67188C2.55371 8.67188 2.33887 8.45215 2.33887 7.96875L2.33887 3.04688C2.33887 2.57812 2.55371 2.3584 3.0127 2.3584L10.3809 2.3584C10.8398 2.3584 11.0596 2.57812 11.0596 3.04688L11.0596 7.96875C11.0596 8.45215 10.8398 8.67188 10.3809 8.67188Z" fill="#000000" fill-opacity="0.85"/>
 </g>
</svg>
