<?xml version="1.0" encoding="UTF-8"?>
<!--Generator: Apple Native CoreSVG 232.5-->
<!DOCTYPE svg
PUBLIC "-//W3C//DTD SVG 1.1//EN"
       "http://www.w3.org/Graphics/SVG/1.1/DTD/svg11.dtd">
<svg version="1.1" xmlns="http://www.w3.org/2000/svg" xmlns:xlink="http://www.w3.org/1999/xlink" width="26.6943" height="26.3379">
 <g>
  <rect height="26.3379" opacity="0" width="26.6943" x="0" y="0"/>
  <path d="M26.333 13.1689C26.333 20.3857 20.3857 26.333 13.1641 26.333C5.94727 26.333 0 20.3857 0 13.1689C0 5.94727 5.9375 0 13.1543 0C20.3809 0 26.333 5.94727 26.333 13.1689ZM15.5273 7.89062L13.291 11.3135L13.2031 11.3135L10.8984 7.88086C10.4785 7.23633 10.1514 7.0166 9.56055 7.0166C8.79883 7.0166 8.22754 7.55371 8.22754 8.28125C8.22754 8.64258 8.34473 8.92578 8.63281 9.29688L11.3818 13.0762L8.52051 16.9922C8.25684 17.3486 8.14941 17.6172 8.14941 17.9736C8.14941 18.6865 8.69141 19.1943 9.44824 19.1943C10.0244 19.1943 10.332 18.9795 10.7764 18.3105L13.1055 14.8926L13.1885 14.8926L15.4688 18.3105C15.8936 18.9697 16.2158 19.1943 16.8018 19.1943C17.5879 19.1943 18.1348 18.6865 18.1348 17.9443C18.1348 17.5928 18.0176 17.3047 17.7539 16.958L14.9219 13.1104L17.7686 9.23828C18.042 8.88672 18.1592 8.5791 18.1592 8.25195C18.1592 7.53418 17.6123 7.0166 16.8408 7.0166C16.2598 7.0166 15.9277 7.24609 15.5273 7.89062Z" fill="#000000" fill-opacity="0.85"/>
 </g>
</svg>
